<?xml version="1.0" standalone="no"?><!DOCTYPE svg PUBLIC "-//W3C//DTD SVG 1.1//EN" "http://www.w3.org/Graphics/SVG/1.1/DTD/svg11.dtd"><svg t="1702393898709" class="icon" viewBox="0 0 1024 1024" version="1.1" xmlns="http://www.w3.org/2000/svg" p-id="18033" xmlns:xlink="http://www.w3.org/1999/xlink" width="10" height="10"><path d="M634.7 457.8m-158.4 0a158.4 158.4 0 1 0 316.8 0 158.4 158.4 0 1 0-316.8 0Z" fill="#F04726" p-id="18034"></path><path d="M634.7 628.7c-94.3 0-171-76.7-171-171s76.7-171 171-171 171 76.7 171 171-76.7 171-171 171z m0-316.8c-80.4 0-145.8 65.4-145.8 145.8s65.4 145.8 145.8 145.8 145.8-65.4 145.8-145.8-65.4-145.8-145.8-145.8z" fill="#592900" p-id="18035"></path><path d="M663.7 220.8c0 16.2-13.1 29.3-29.3 29.3-16.2 0-29.3-13.1-29.3-29.3 0-16.2 13.1-29.3 29.3-29.3 16.2 0 29.3 13.1 29.3 29.3z" fill="#F7BC00" p-id="18036"></path><path d="M634.4 258.5c-20.8 0-37.7-16.9-37.7-37.7 0-20.8 16.9-37.7 37.7-37.7s37.7 16.9 37.7 37.7c0 20.8-17 37.7-37.7 37.7z m0-58.7c-11.6 0-21 9.4-21 21s9.4 21 21 21 21-9.4 21-21c-0.1-11.6-9.5-21-21-21z" fill="#592900" p-id="18037"></path><path d="M541.3 238c8.1 14 3.3 32-10.7 40.1-14 8.1-32 3.3-40.1-10.7-8.1-14-3.3-32 10.7-40.1 14.1-8.1 32-3.3 40.1 10.7z" fill="#F7BC00" p-id="18038"></path><path d="M516 290.4c-13 0-25.7-6.8-32.7-18.8-10.4-18-4.2-41.1 13.8-51.5 18-10.4 41.1-4.2 51.5 13.8 10.4 18 4.2 41.1-13.8 51.5-6 3.4-12.4 5-18.8 5z m-0.1-58.7c-3.6 0-7.2 0.9-10.4 2.8-10 5.8-13.4 18.6-7.7 28.6 5.8 10 18.6 13.5 28.6 7.7s13.4-18.6 7.7-28.6c-3.9-6.7-11-10.5-18.2-10.5z" fill="#592900" p-id="18039"></path><path d="M871.7 457.5m-29.3 0a29.3 29.3 0 1 0 58.6 0 29.3 29.3 0 1 0-58.6 0Z" fill="#F7BC00" p-id="18040"></path><path d="M871.7 495.2c-20.8 0-37.7-16.9-37.7-37.7 0-20.8 16.9-37.7 37.7-37.7s37.7 16.9 37.7 37.7c0 20.7-16.9 37.7-37.7 37.7z m0-58.7c-11.6 0-21 9.4-21 21s9.4 21 21 21 21-9.4 21-21c-0.1-11.6-9.5-21-21-21z" fill="#592900" p-id="18041"></path><path d="M854.4 364.4c-14 8.1-32 3.3-40.1-10.7-8.1-14-3.3-32 10.7-40.1 14-8.1 32-3.3 40.1 10.7 8.2 14.1 3.4 32-10.7 40.1z" fill="#F7BC00" p-id="18042"></path><path d="M839.8 376.7c-3.3 0-6.6-0.4-9.8-1.3-9.7-2.6-17.9-8.8-22.9-17.6-5-8.7-6.4-18.9-3.8-28.6 2.6-9.7 8.8-17.9 17.6-22.9 8.7-5 18.9-6.4 28.6-3.8 9.7 2.6 17.9 8.8 22.9 17.6 5 8.7 6.4 18.9 3.8 28.6-2.6 9.7-8.8 17.9-17.6 22.9-5.8 3.4-12.2 5.1-18.8 5.1z m-0.1-58.7c-3.6 0-7.2 1-10.4 2.8-4.9 2.8-8.3 7.3-9.8 12.7-1.4 5.4-0.7 11.1 2.1 15.9 2.8 4.9 7.3 8.3 12.7 9.8 5.4 1.5 11.1 0.7 15.9-2.1 4.8-2.8 8.3-7.3 9.8-12.7 1.4-5.4 0.7-11.1-2.1-15.9-2.8-4.9-7.3-8.3-12.7-9.8-1.8-0.4-3.7-0.7-5.5-0.7z" fill="#592900" p-id="18043"></path><path d="M778.3 267c-8.1 14-26 18.8-40.1 10.7-14-8.1-18.8-26-10.7-40.1 8.1-14 26-18.8 40.1-10.7 14 8.2 18.8 26.1 10.7 40.1z" fill="#F7BC00" p-id="18044"></path><path d="M752.8 290.1c-6.4 0-12.9-1.6-18.8-5-18-10.4-24.2-33.5-13.8-51.5 10.4-18 33.5-24.2 51.5-13.8 18 10.4 24.2 33.5 13.8 51.5-6.9 12-19.6 18.8-32.7 18.8z m0.1-58.7c-7.3 0-14.3 3.8-18.2 10.5-5.8 10-2.3 22.9 7.7 28.6 10 5.8 22.9 2.3 28.6-7.7 5.8-10 2.3-22.9-7.7-28.6-3.2-1.9-6.8-2.8-10.4-2.8z" fill="#592900" p-id="18045"></path><path d="M806.2 678.3c0-80.9-62.1-146.7-142.3-149.5-25.5-96.8-112.6-168.2-217.4-168.2-120.8 0-225.6 100.6-225.1 214.1-54.3 15.2-93.9 65.1-93.9 124.3 0 71.3 54.6 129.1 125.9 129.1h-2.8l414.6-0.6c78.2-6.6 141-70.8 141-149.2z" fill="#99DCFF" p-id="18046"></path><path d="M256.2 840.9c-78.1 0-141.6-63.5-141.6-141.6s63.5-141.6 141.6-141.6c45.6 0 88.7 22.2 115.3 59.3 4 5.6 2.7 13.5-2.9 17.5s-13.5 2.7-17.5-2.9c-21.9-30.6-57.3-48.8-94.8-48.8-64.2 0-116.5 52.3-116.5 116.5s52.3 116.5 116.5 116.5c6.9 0 12.6 5.6 12.6 12.6-0.1 6.9-5.7 12.5-12.7 12.5z" fill="#592900" p-id="18047"></path><path d="M172.1 708.5c-6.9 0-12.6-5.6-12.6-12.6 0-51 41.5-92.4 92.4-92.4 6.9 0 12.6 5.6 12.6 12.6 0 6.9-5.6 12.6-12.6 12.6-37.1 0-67.3 30.2-67.3 67.3 0.1 6.9-5.6 12.5-12.5 12.5zM294.2 503.5c-2 0-4.1-0.5-6-1.6-6.1-3.3-8.3-11-5-17.1 22.5-40.9 59.4-71 103.8-84.7 6.6-2 13.7 1.7 15.7 8.3 2 6.6-1.7 13.7-8.3 15.7-37.6 11.6-70.2 38.1-89.2 72.8-2.3 4.3-6.6 6.6-11 6.6z" fill="#F5FFFF" p-id="18048"></path><path d="M253.4 840.5h-3.9c-75.8-2-134.6-63.5-134.6-141.6 0-60.1 38.2-113.7 94.1-133.5 2.2-52.9 25.4-104 66.1-144.9 45.8-46.1 108.3-72.5 171.4-72.5 104.6 0 196.7 69 227.1 168.9 82.1 7.5 145.2 76.7 145.2 161.4 0 83.5-67 154.5-152.5 161.5h-1l-411.3 0.6c-0.2 0.1-0.4 0.1-0.6 0.1z m193.1-467.4c-56.4 0-112.4 23.7-153.6 65.1-38.3 38.5-59.2 86.9-58.9 136.4 0 5.7-3.7 10.6-9.2 12.2-49.9 14-84.8 60.1-84.8 112.2 0 64.8 49 115.7 111.8 116.5l412.8-0.6c72.4-6.2 129-66.1 129-136.5 0-74.2-57.2-134.4-130.2-136.9-5.5-0.2-10.3-4-11.7-9.4-24.5-93.6-109-159-205.2-159z" fill="#592900" p-id="18049"></path></svg>